<?xml version="1.0" standalone="no"?><!-- Generator: Gravit.io -->
<svg xmlns="http://www.w3.org/2000/svg" xmlns:xlink="http://www.w3.org/1999/xlink" style="isolation:isolate"
     viewBox="0 0 967.462 155.037" width="967.462" height="155.037">
    <defs>
        <clipPath id="_clipPath_wdlUCC8jh9oPOh3rN52JEzZ9W5prVtIh">
            <rect width="967.462" height="155.037"/>
        </clipPath>
    </defs>
    <g clip-path="url(#_clipPath_wdlUCC8jh9oPOh3rN52JEzZ9W5prVtIh)">
        <g>
            <g>
                <g>
                    <path d=" M 488.818 51.091 C 487.171 52.356 485.62 53.741 484.163 55.221 C 482.707 56.725 481.347 58.324 480.105 59.995 C 478.84 61.738 477.671 63.576 476.644 65.485 C 474.615 69.233 473.063 73.22 472.085 77.349 C 470.987 81.885 470.438 86.516 470.438 91.171 C 470.438 93.51 470.581 95.849 470.867 98.189 C 471.13 100.385 471.536 102.557 472.085 104.682 C 472.61 106.758 473.278 108.787 474.066 110.793 C 474.854 112.774 475.785 114.707 476.835 116.569 C 477.885 118.455 479.079 120.293 480.368 122.036 C 481.633 123.707 483.018 125.306 484.498 126.81 C 485.978 128.29 487.553 129.675 489.224 130.964 C 490.943 132.276 492.757 133.47 494.643 134.544 C 496.481 135.595 498.391 136.525 500.372 137.337 C 502.353 138.149 504.382 138.817 506.459 139.342 C 508.607 139.915 510.804 140.321 513.023 140.607 C 515.387 140.894 517.75 141.037 520.137 141.037 C 523.384 141.037 526.63 140.751 529.829 140.202 C 532.741 139.7 535.558 138.913 538.303 137.862 C 540.929 136.86 543.459 135.618 545.846 134.115 C 548.281 132.587 550.573 130.82 552.697 128.839 C 553.676 127.884 554.44 126.762 555.013 125.497 C 555.538 124.327 555.8 123.038 555.8 121.749 C 555.8 120.962 555.705 120.15 555.514 119.386 C 555.347 118.622 555.06 117.858 554.726 117.142 C 554.344 116.378 553.867 115.662 553.318 114.994 C 552.721 114.254 552.029 113.562 551.265 112.941 C 550.31 112.201 549.236 111.628 548.09 111.222 C 546.992 110.84 545.846 110.649 544.7 110.649 C 543.292 110.649 541.907 110.912 540.595 111.389 C 539.067 111.986 537.611 112.774 536.298 113.753 C 535.367 114.54 534.34 115.256 533.266 115.853 C 532.144 116.474 530.975 116.999 529.757 117.405 C 528.373 117.882 526.964 118.216 525.508 118.431 C 523.742 118.694 521.927 118.837 520.137 118.837 C 517.607 118.837 515.1 118.527 512.642 117.882 C 510.493 117.333 508.416 116.45 506.507 115.328 C 504.597 114.182 502.831 112.798 501.303 111.174 C 499.727 109.504 498.391 107.642 497.316 105.613 C 496.242 103.56 495.407 101.387 494.882 99.12 C 494.285 96.518 493.974 93.844 493.974 91.171 C 493.974 88.903 494.165 86.659 494.523 84.415 C 494.834 82.601 495.311 80.811 495.956 79.092 C 496.529 77.54 497.245 76.036 498.128 74.628 C 498.964 73.267 499.942 71.978 501.04 70.809 C 502.162 69.591 503.403 68.517 504.74 67.562 C 506.005 66.679 507.366 65.915 508.822 65.294 C 510.326 64.65 511.902 64.196 513.525 63.886 C 515.411 63.528 517.368 63.337 519.302 63.337 C 521.164 63.337 523.049 63.504 524.887 63.838 C 526.367 64.125 527.8 64.554 529.184 65.151 C 530.545 65.724 531.858 66.464 533.051 67.323 C 534.507 68.374 535.82 69.543 537.038 70.856 C 537.634 71.525 538.279 72.121 538.995 72.671 C 539.687 73.172 540.427 73.625 541.215 73.983 C 541.979 74.318 542.791 74.604 543.602 74.771 C 544.462 74.938 545.345 75.034 546.204 75.034 C 547.255 75.034 548.305 74.867 549.331 74.58 C 550.31 74.27 551.241 73.816 552.077 73.22 C 552.912 72.671 553.676 72.026 554.368 71.286 C 555.013 70.642 555.562 69.901 556.015 69.09 C 556.445 68.326 556.755 67.538 556.97 66.679 C 557.185 65.843 557.304 64.984 557.304 64.101 C 557.304 62.86 557.066 61.642 556.636 60.472 C 556.182 59.327 555.562 58.3 554.726 57.393 C 552.435 54.743 549.88 52.332 547.087 50.184 C 544.533 48.227 541.74 46.556 538.804 45.195 C 535.868 43.858 532.813 42.856 529.662 42.211 C 526.248 41.495 522.787 41.137 519.302 41.137 C 516.938 41.137 514.599 41.28 512.26 41.567 C 510.064 41.829 507.915 42.259 505.791 42.808 C 503.738 43.333 501.733 44.001 499.775 44.789 C 497.842 45.577 495.956 46.508 494.118 47.534 C 492.28 48.609 490.489 49.778 488.818 51.091 Z "
                          fill="rgb(255,255,225)"/>
                    <path d=" M 620.562 141.037 C 618.151 141.037 615.74 140.894 613.33 140.607 C 611.109 140.345 608.889 139.915 606.717 139.366 C 604.64 138.841 602.611 138.173 600.606 137.385 C 598.649 136.597 596.739 135.69 594.901 134.64 C 593.015 133.589 591.201 132.396 589.482 131.083 C 587.811 129.818 586.236 128.457 584.756 126.953 C 583.3 125.473 581.915 123.898 580.674 122.227 C 579.385 120.508 578.215 118.694 577.165 116.808 C 576.138 114.97 575.231 113.06 574.468 111.103 C 573.68 109.122 573.035 107.093 572.51 105.016 C 571.961 102.843 571.555 100.623 571.293 98.403 C 571.006 95.993 570.863 93.582 570.863 91.171 C 570.863 88.712 571.006 86.277 571.293 83.842 C 571.555 81.598 571.961 79.354 572.51 77.158 C 573.035 75.082 573.704 73.052 574.491 71.047 C 575.255 69.09 576.138 67.204 577.165 65.366 C 578.215 63.48 579.385 61.666 580.674 59.947 C 581.915 58.276 583.3 56.701 584.756 55.221 C 586.236 53.717 587.811 52.356 589.482 51.091 C 591.201 49.778 593.015 48.585 594.901 47.534 C 596.739 46.484 598.649 45.577 600.606 44.789 C 602.611 44.001 604.64 43.333 606.717 42.808 C 608.889 42.259 611.109 41.829 613.33 41.567 C 615.74 41.28 618.151 41.137 620.562 41.137 C 622.95 41.137 625.337 41.28 627.7 41.567 C 629.896 41.829 632.092 42.259 634.24 42.808 C 636.293 43.333 638.322 44.001 640.304 44.789 C 642.261 45.577 644.147 46.508 645.985 47.534 C 647.847 48.585 649.637 49.778 651.332 51.067 C 653.003 52.332 654.579 53.717 656.059 55.197 C 657.515 56.677 658.899 58.252 660.141 59.923 C 661.453 61.642 662.647 63.456 663.697 65.342 C 664.724 67.18 665.655 69.09 666.419 71.047 C 667.23 73.029 667.875 75.082 668.424 77.158 C 668.973 79.354 669.379 81.598 669.665 83.842 C 669.952 86.277 670.095 88.712 670.095 91.171 C 670.095 93.582 669.952 95.993 669.665 98.403 C 669.403 100.623 668.997 102.843 668.448 105.016 C 667.923 107.093 667.278 109.122 666.49 111.103 C 665.726 113.06 664.819 114.97 663.793 116.808 C 662.742 118.694 661.573 120.508 660.284 122.227 C 659.042 123.898 657.682 125.497 656.202 126.977 C 654.746 128.457 653.17 129.818 651.523 131.083 C 649.804 132.396 648.014 133.565 646.152 134.64 C 644.314 135.666 642.428 136.597 640.471 137.361 C 638.513 138.173 636.484 138.841 634.408 139.366 C 632.235 139.915 630.039 140.345 627.795 140.607 C 625.408 140.894 622.973 141.037 620.562 141.037 Z  M 620.562 118.837 C 618.08 118.837 615.621 118.527 613.234 117.882 C 611.086 117.333 609.009 116.474 607.099 115.328 C 605.166 114.182 603.423 112.798 601.871 111.174 C 600.272 109.504 598.911 107.618 597.813 105.589 C 596.715 103.536 595.88 101.363 595.331 99.096 C 594.71 96.494 594.4 93.844 594.4 91.171 C 594.4 88.497 594.71 85.823 595.331 83.222 C 595.88 80.93 596.715 78.734 597.813 76.657 C 598.911 74.604 600.296 72.694 601.895 71 C 603.423 69.376 605.189 67.992 607.099 66.846 C 609.009 65.7 611.086 64.841 613.234 64.292 C 615.621 63.647 618.08 63.337 620.562 63.337 C 623.045 63.337 625.504 63.647 627.891 64.292 C 630.039 64.841 632.116 65.7 634.026 66.846 C 635.935 67.992 637.678 69.376 639.206 71 C 640.781 72.671 642.142 74.58 643.216 76.633 C 644.29 78.71 645.126 80.906 645.651 83.198 C 646.248 85.823 646.558 88.497 646.558 91.171 C 646.558 93.844 646.248 96.518 645.651 99.12 C 645.126 101.387 644.29 103.56 643.216 105.613 C 642.142 107.642 640.805 109.504 639.23 111.174 C 637.702 112.798 635.935 114.182 634.026 115.328 C 632.116 116.474 630.039 117.333 627.891 117.882 C 625.504 118.527 623.045 118.837 620.562 118.837 Z "
                          fill-rule="evenodd" fill="rgb(255,255,225)"/>
                    <path d=" M 773.026 2.705 C 773.885 2.705 774.744 2.776 775.604 2.919 C 776.391 3.063 777.179 3.278 777.919 3.588 C 778.635 3.874 779.328 4.232 779.948 4.638 C 780.593 5.068 781.189 5.545 781.739 6.094 C 782.288 6.643 782.765 7.24 783.195 7.885 C 783.6 8.505 783.959 9.198 784.245 9.914 C 784.555 10.654 784.77 11.441 784.913 12.229 C 785.057 13.088 785.128 13.948 785.128 14.807 L 785.128 91.003 C 785.128 93.343 784.985 95.682 784.699 98.022 C 784.412 100.218 784.006 102.39 783.433 104.514 C 782.884 106.615 782.216 108.644 781.404 110.625 C 780.569 112.631 779.638 114.564 778.564 116.426 C 777.466 118.336 776.248 120.15 774.935 121.893 C 773.646 123.587 772.262 125.187 770.782 126.667 C 769.302 128.171 767.726 129.555 766.055 130.844 C 764.36 132.157 762.57 133.375 760.708 134.449 C 758.87 135.523 756.96 136.478 754.979 137.289 C 753.022 138.125 751.017 138.793 748.964 139.342 C 746.839 139.915 744.691 140.321 742.518 140.607 C 740.227 140.894 737.911 141.037 735.596 141.037 C 733.28 141.037 730.989 140.894 728.697 140.607 C 726.501 140.321 724.353 139.915 722.228 139.366 C 720.151 138.817 718.122 138.125 716.141 137.313 C 714.16 136.502 712.202 135.547 710.34 134.473 C 708.431 133.375 706.616 132.157 704.874 130.844 C 703.203 129.555 701.604 128.147 700.1 126.643 C 698.62 125.139 697.235 123.54 695.97 121.869 C 694.657 120.126 693.44 118.312 692.389 116.402 C 691.315 114.54 690.384 112.607 689.573 110.625 C 688.785 108.644 688.093 106.591 687.567 104.514 C 687.018 102.39 686.589 100.218 686.326 98.022 C 686.04 95.682 685.896 93.343 685.896 91.003 C 685.896 86.468 686.422 81.932 687.472 77.516 C 688.451 73.411 689.931 69.424 691.912 65.7 C 692.915 63.767 694.06 61.929 695.302 60.162 C 696.471 58.467 697.784 56.868 699.169 55.364 C 700.553 53.884 702.033 52.5 703.585 51.234 C 705.16 49.945 706.831 48.752 708.574 47.678 C 710.317 46.603 712.131 45.672 713.993 44.837 C 715.855 44.025 717.74 43.357 719.698 42.808 C 721.679 42.259 723.708 41.829 725.761 41.567 C 727.909 41.28 730.082 41.137 732.254 41.137 C 735.691 41.137 739.129 41.519 742.495 42.259 C 745.717 42.975 748.868 44.073 751.852 45.505 C 754.836 46.938 757.653 48.68 760.231 50.733 C 760.469 50.9 760.708 51.091 760.923 51.282 L 760.923 14.807 C 760.923 13.948 760.995 13.065 761.162 12.229 C 761.305 11.417 761.52 10.63 761.83 9.89 C 762.117 9.174 762.499 8.481 762.928 7.837 C 763.382 7.192 763.883 6.596 764.432 6.047 C 765.005 5.521 765.602 5.02 766.246 4.614 C 766.891 4.185 767.583 3.85 768.275 3.564 C 769.015 3.278 769.779 3.063 770.543 2.919 C 771.379 2.776 772.19 2.705 773.026 2.705 Z  M 735.596 118.837 C 733.185 118.837 730.798 118.527 728.482 117.882 C 726.31 117.309 724.233 116.426 722.324 115.256 C 720.39 114.087 718.624 112.678 717.072 111.031 C 715.449 109.313 714.064 107.403 712.918 105.326 C 711.797 103.249 710.937 101.029 710.364 98.738 C 709.744 96.207 709.433 93.605 709.433 91.003 C 709.433 88.402 709.744 85.8 710.364 83.269 C 710.937 81.002 711.773 78.829 712.918 76.776 C 714.04 74.723 715.425 72.838 717.048 71.143 C 718.624 69.52 720.39 68.087 722.324 66.918 C 724.233 65.748 726.31 64.865 728.482 64.292 C 730.798 63.647 733.185 63.337 735.596 63.337 C 738.007 63.337 740.394 63.647 742.709 64.292 C 744.882 64.865 746.958 65.748 748.868 66.918 C 750.802 68.087 752.568 69.496 754.12 71.143 C 755.719 72.838 757.08 74.7 758.178 76.752 C 759.3 78.805 760.135 80.978 760.66 83.245 C 761.281 85.776 761.591 88.402 761.591 91.003 C 761.591 93.629 761.281 96.231 760.684 98.762 C 760.135 101.053 759.276 103.273 758.178 105.35 C 757.056 107.427 755.695 109.336 754.096 111.031 C 752.544 112.678 750.802 114.087 748.868 115.256 C 746.958 116.426 744.882 117.309 742.709 117.882 C 740.394 118.527 738.007 118.837 735.596 118.837 Z "
                          fill-rule="evenodd" fill="rgb(255,255,225)"/>
                    <path d=" M 895.007 89.667 C 895.007 85.083 894.53 80.524 893.551 76.036 C 892.716 72.098 891.403 68.302 889.636 64.698 C 888.705 62.836 887.679 61.045 886.533 59.35 C 885.435 57.727 884.218 56.176 882.905 54.72 C 881.592 53.287 880.207 51.974 878.703 50.733 C 877.176 49.492 875.576 48.37 873.905 47.343 C 872.258 46.341 870.563 45.481 868.797 44.718 C 866.983 43.954 865.097 43.309 863.187 42.784 C 861.111 42.235 859.01 41.829 856.909 41.567 C 854.546 41.28 852.183 41.137 849.82 41.137 C 847.456 41.137 845.117 41.28 842.754 41.567 C 840.581 41.829 838.433 42.259 836.309 42.808 C 834.256 43.333 832.274 44.001 830.317 44.813 C 828.383 45.601 826.522 46.508 824.731 47.558 C 822.893 48.609 821.127 49.802 819.456 51.091 C 817.809 52.356 816.281 53.741 814.825 55.221 C 813.369 56.725 812.032 58.3 810.791 59.995 C 809.525 61.738 808.356 63.576 807.329 65.485 C 805.3 69.233 803.749 73.22 802.77 77.349 C 801.672 81.885 801.123 86.516 801.123 91.171 C 801.123 93.582 801.266 95.993 801.576 98.403 C 801.839 100.623 802.269 102.843 802.841 105.016 C 803.39 107.093 804.059 109.145 804.894 111.127 C 805.706 113.108 806.637 115.018 807.711 116.856 C 808.785 118.742 810.003 120.532 811.34 122.251 C 812.629 123.922 814.037 125.497 815.565 126.977 C 817.092 128.457 818.716 129.842 820.434 131.107 C 822.225 132.42 824.111 133.613 826.044 134.664 C 827.93 135.69 829.887 136.597 831.892 137.385 C 833.945 138.173 836.022 138.841 838.171 139.366 C 840.391 139.915 842.658 140.345 844.926 140.607 C 847.385 140.894 849.867 141.037 852.326 141.037 C 855.071 141.037 857.816 140.798 860.514 140.321 C 863.593 139.772 866.625 139.008 869.585 138.005 C 872.545 137.003 875.433 135.785 878.202 134.329 C 880.518 133.136 882.714 131.727 884.767 130.104 C 885.387 129.627 885.984 129.078 886.485 128.481 C 887.011 127.908 887.44 127.264 887.798 126.595 C 888.133 125.927 888.395 125.211 888.562 124.494 C 888.729 123.755 888.825 123.014 888.825 122.251 C 888.825 121.487 888.729 120.723 888.562 119.959 C 888.371 119.219 888.109 118.479 887.775 117.787 C 887.393 117.047 886.963 116.354 886.438 115.734 C 885.865 115.042 885.244 114.421 884.576 113.872 C 883.645 113.036 882.547 112.392 881.353 111.986 C 880.016 111.533 878.632 111.318 877.224 111.318 C 875.815 111.318 874.431 111.533 873.094 111.986 C 871.805 112.416 870.587 113.06 869.513 113.896 C 868.534 114.636 867.484 115.304 866.386 115.853 C 864.858 116.641 863.259 117.309 861.612 117.858 C 859.989 118.407 858.342 118.837 856.647 119.124 C 855.214 119.386 853.782 119.505 852.326 119.505 C 850.345 119.505 848.387 119.362 846.43 119.052 C 844.759 118.765 843.088 118.36 841.489 117.811 C 839.961 117.285 838.505 116.617 837.096 115.853 C 835.688 115.065 834.375 114.158 833.134 113.132 C 831.869 112.105 830.699 110.936 829.625 109.694 C 828.622 108.525 827.739 107.26 826.975 105.923 C 826.211 104.538 825.567 103.106 825.042 101.602 C 824.946 101.268 824.827 100.934 824.731 100.6 L 883.74 100.6 C 885.244 100.6 886.724 100.337 888.133 99.788 C 889.469 99.287 890.687 98.499 891.737 97.52 C 892.262 97.019 892.74 96.446 893.146 95.849 C 893.551 95.276 893.885 94.656 894.172 93.987 C 894.458 93.319 894.649 92.627 894.793 91.911 C 894.936 91.171 895.007 90.431 895.007 89.667 Z  M 849.823 62.672 C 851.494 62.672 853.165 62.815 854.836 63.101 C 856.196 63.34 857.533 63.722 858.822 64.223 C 859.992 64.677 861.138 65.25 862.212 65.942 C 863.286 66.634 864.289 67.446 865.196 68.329 C 866.127 69.26 866.986 70.239 867.75 71.313 C 868.538 72.411 869.23 73.557 869.827 74.774 C 870.471 76.111 870.996 77.519 871.426 78.952 C 871.522 79.31 871.617 79.692 871.713 80.074 L 824.973 80.074 C 825.069 79.787 825.164 79.501 825.26 79.214 C 825.761 77.782 826.358 76.374 827.098 75.061 C 827.79 73.819 828.578 72.626 829.461 71.528 C 830.344 70.43 831.323 69.403 832.397 68.472 C 833.4 67.565 834.521 66.777 835.691 66.085 C 836.909 65.369 838.198 64.772 839.511 64.295 C 841.014 63.77 842.542 63.364 844.094 63.125 C 845.98 62.815 847.913 62.672 849.823 62.672 Z "
                          fill-rule="evenodd" fill="rgb(255,255,225)"/>
                </g>
                <g>
                    <path d=" M 55.446 12.561 L 55.446 12.561 Q 43.603 12.561 37.592 20.456 L 37.592 20.456 L 37.592 20.456 Q 31.581 28.351 31.581 41.45 L 31.581 41.45 L 31.581 45.577 L 53.113 45.577 L 53.113 45.577 Q 55.984 45.577 57.689 47.281 L 57.689 47.281 L 57.689 47.281 Q 59.394 48.986 59.394 51.678 L 59.394 51.678 L 59.394 51.678 Q 59.394 54.19 57.689 55.894 L 57.689 55.894 L 57.689 55.894 Q 55.984 57.599 53.113 57.599 L 53.113 57.599 L 31.581 57.599 L 31.581 133.142 L 31.581 133.142 Q 31.581 136.372 29.697 138.256 L 29.697 138.256 L 29.697 138.256 Q 27.813 140.14 24.403 140.14 L 24.403 140.14 L 24.403 140.14 Q 21.532 140.14 19.648 138.256 L 19.648 138.256 L 19.648 138.256 Q 17.764 136.372 17.764 133.142 L 17.764 133.142 L 17.764 57.599 L 6.28 57.599 L 6.28 57.599 Q 3.409 57.599 1.705 55.894 L 1.705 55.894 L 1.705 55.894 Q 0 54.19 0 51.678 L 0 51.678 L 0 51.678 Q 0 48.986 1.705 47.281 L 1.705 47.281 L 1.705 47.281 Q 3.409 45.577 6.28 45.577 L 6.28 45.577 L 17.764 45.577 L 17.764 42.168 L 17.764 42.168 Q 17.764 22.968 27.633 11.484 L 27.633 11.484 L 27.633 11.484 Q 37.502 0 55.446 0 L 55.446 0 L 55.446 0 Q 58.496 0 60.47 1.794 L 60.47 1.794 L 60.47 1.794 Q 62.444 3.589 62.444 6.28 L 62.444 6.28 L 62.444 6.28 Q 62.444 8.972 60.47 10.766 L 60.47 10.766 L 60.47 10.766 Q 58.496 12.561 55.446 12.561 L 55.446 12.561 Z "
                          fill="rgb(255,255,225)"/>
                    <path d=" M 128.925 40.911 L 128.925 40.911 Q 136.461 40.911 140.858 42.885 L 140.858 42.885 L 140.858 42.885 Q 145.254 44.859 145.254 48.448 L 145.254 48.448 L 145.254 48.448 Q 145.254 49.524 145.074 50.063 L 145.074 50.063 L 145.074 50.063 Q 144.357 52.575 142.831 53.472 L 142.831 53.472 L 142.831 53.472 Q 141.306 54.369 138.615 54.369 L 138.615 54.369 L 138.615 54.369 Q 137 54.369 133.052 54.01 L 133.052 54.01 L 133.052 54.01 Q 131.617 53.831 128.746 53.831 L 128.746 53.831 L 128.746 53.831 Q 115.288 53.831 106.765 61.008 L 106.765 61.008 L 106.765 61.008 Q 98.241 68.186 98.241 79.67 L 98.241 79.67 L 98.241 133.321 L 98.241 133.321 Q 98.241 136.551 96.447 138.346 L 96.447 138.346 L 96.447 138.346 Q 94.653 140.14 91.423 140.14 L 91.423 140.14 L 91.423 140.14 Q 88.193 140.14 86.399 138.346 L 86.399 138.346 L 86.399 138.346 Q 84.604 136.551 84.604 133.321 L 84.604 133.321 L 84.604 48.807 L 84.604 48.807 Q 84.604 45.577 86.399 43.782 L 86.399 43.782 L 86.399 43.782 Q 88.193 41.988 91.423 41.988 L 91.423 41.988 L 91.423 41.988 Q 94.653 41.988 96.447 43.782 L 96.447 43.782 L 96.447 43.782 Q 98.241 45.577 98.241 48.807 L 98.241 48.807 L 98.241 56.702 L 98.241 56.702 Q 103.445 49.166 111.52 45.039 L 111.52 45.039 L 111.52 45.039 Q 119.594 40.911 128.925 40.911 L 128.925 40.911 Z "
                          fill="rgb(255,255,225)"/>
                    <path d=" M 204.737 41.091 L 204.737 41.091 Q 218.912 41.091 230.217 47.551 L 230.217 47.551 L 230.217 47.551 Q 241.522 54.01 248.071 65.494 L 248.071 65.494 L 248.071 65.494 Q 254.62 76.978 254.62 91.154 L 254.62 91.154 L 254.62 91.154 Q 254.62 105.329 248.161 116.723 L 248.161 116.723 L 248.161 116.723 Q 241.701 128.118 230.307 134.577 L 230.307 134.577 L 230.307 134.577 Q 218.912 141.037 204.737 141.037 L 204.737 141.037 L 204.737 141.037 Q 190.562 141.037 179.167 134.577 L 179.167 134.577 L 179.167 134.577 Q 167.773 128.118 161.313 116.723 L 161.313 116.723 L 161.313 116.723 Q 154.854 105.329 154.854 91.154 L 154.854 91.154 L 154.854 91.154 Q 154.854 76.978 161.313 65.494 L 161.313 65.494 L 161.313 65.494 Q 167.773 54.01 179.167 47.551 L 179.167 47.551 L 179.167 47.551 Q 190.562 41.091 204.737 41.091 L 204.737 41.091 Z  M 204.737 53.652 L 204.737 53.652 Q 194.509 53.652 186.165 58.496 L 186.165 58.496 L 186.165 58.496 Q 177.822 63.341 173.066 71.864 L 173.066 71.864 L 173.066 71.864 Q 168.311 80.388 168.311 91.154 L 168.311 91.154 L 168.311 91.154 Q 168.311 101.74 173.066 110.264 L 173.066 110.264 L 173.066 110.264 Q 177.822 118.787 186.165 123.632 L 186.165 123.632 L 186.165 123.632 Q 194.509 128.477 204.737 128.477 L 204.737 128.477 L 204.737 128.477 Q 215.144 128.477 223.398 123.632 L 223.398 123.632 L 223.398 123.632 Q 231.653 118.787 236.318 110.264 L 236.318 110.264 L 236.318 110.264 Q 240.983 101.74 240.983 91.154 L 240.983 91.154 L 240.983 91.154 Q 240.983 80.388 236.318 71.864 L 236.318 71.864 L 236.318 71.864 Q 231.653 63.341 223.398 58.496 L 223.398 58.496 L 223.398 58.496 Q 215.144 53.652 204.737 53.652 L 204.737 53.652 Z "
                          fill-rule="evenodd" fill="rgb(255,255,225)"/>
                    <path d=" M 323.524 40.911 L 323.524 40.911 Q 336.264 40.911 346.402 46.295 L 346.402 46.295 L 346.402 46.295 Q 356.54 51.678 362.282 61.995 L 362.282 61.995 L 362.282 61.995 Q 368.024 72.313 368.024 86.668 L 368.024 86.668 L 368.024 133.321 L 368.024 133.321 Q 368.024 136.192 366.05 138.166 L 366.05 138.166 L 366.05 138.166 Q 364.077 140.14 361.206 140.14 L 361.206 140.14 L 361.206 140.14 Q 358.155 140.14 356.181 138.166 L 356.181 138.166 L 356.181 138.166 Q 354.208 136.192 354.208 133.321 L 354.208 133.321 L 354.208 86.668 L 354.208 86.668 Q 354.208 70.698 345.326 62.354 L 345.326 62.354 L 345.326 62.354 Q 336.443 54.01 322.088 54.01 L 322.088 54.01 L 322.088 54.01 Q 313.296 54.01 306.208 57.42 L 306.208 57.42 L 306.208 57.42 Q 299.121 60.829 294.994 66.84 L 294.994 66.84 L 294.994 66.84 Q 290.867 72.851 290.867 80.208 L 290.867 80.208 L 290.867 133.321 L 290.867 133.321 Q 290.867 136.372 288.982 138.256 L 288.982 138.256 L 288.982 138.256 Q 287.098 140.14 284.048 140.14 L 284.048 140.14 L 284.048 140.14 Q 280.998 140.14 279.024 138.256 L 279.024 138.256 L 279.024 138.256 Q 277.05 136.372 277.05 133.321 L 277.05 133.321 L 277.05 48.986 L 277.05 48.986 Q 277.05 45.936 279.024 43.962 L 279.024 43.962 L 279.024 43.962 Q 280.998 41.988 284.048 41.988 L 284.048 41.988 L 284.048 41.988 Q 287.098 41.988 288.982 43.962 L 288.982 43.962 L 288.982 43.962 Q 290.867 45.936 290.867 48.986 L 290.867 48.986 L 290.867 55.087 L 290.867 55.087 Q 296.788 48.448 305.221 44.68 L 305.221 44.68 L 305.221 44.68 Q 313.655 40.911 323.524 40.911 L 323.524 40.911 Z "
                          fill="rgb(255,255,225)"/>
                    <path d=" M 441.773 126.323 L 441.773 126.323 Q 444.644 126.323 446.438 128.297 L 446.438 128.297 L 446.438 128.297 Q 448.232 130.271 448.232 133.321 L 448.232 133.321 L 448.232 133.321 Q 448.232 136.192 446.079 138.166 L 446.079 138.166 L 446.079 138.166 Q 443.926 140.14 440.696 140.14 L 440.696 140.14 L 436.928 140.14 L 436.928 140.14 Q 427.418 140.14 419.881 135.564 L 419.881 135.564 L 419.881 135.564 Q 412.345 130.989 408.128 123.183 L 408.128 123.183 L 408.128 123.183 Q 403.912 115.378 403.912 105.509 L 403.912 105.509 L 403.912 57.599 L 392.248 57.599 L 392.248 57.599 Q 389.377 57.599 387.673 55.894 L 387.673 55.894 L 387.673 55.894 Q 385.968 54.19 385.968 51.678 L 385.968 51.678 L 385.968 51.678 Q 385.968 48.986 387.673 47.281 L 387.673 47.281 L 387.673 47.281 Q 389.377 45.577 392.248 45.577 L 392.248 45.577 L 403.912 45.577 L 403.912 17.764 L 403.912 17.764 Q 403.912 14.714 405.796 12.74 L 405.796 12.74 L 405.796 12.74 Q 407.68 10.766 410.73 10.766 L 410.73 10.766 L 410.73 10.766 Q 413.781 10.766 415.754 12.74 L 415.754 12.74 L 415.754 12.74 Q 417.728 14.714 417.728 17.764 L 417.728 17.764 L 417.728 45.577 L 438.004 45.577 L 438.004 45.577 Q 440.875 45.577 442.58 47.281 L 442.58 47.281 L 442.58 47.281 Q 444.285 48.986 444.285 51.678 L 444.285 51.678 L 444.285 51.678 Q 444.285 54.19 442.58 55.894 L 442.58 55.894 L 442.58 55.894 Q 440.875 57.599 438.004 57.599 L 438.004 57.599 L 417.728 57.599 L 417.728 105.509 L 417.728 105.509 Q 417.728 114.66 423.111 120.492 L 423.111 120.492 L 423.111 120.492 Q 428.494 126.323 436.928 126.323 L 436.928 126.323 L 441.773 126.323 Z "
                          fill="rgb(255,255,225)"/>
                </g>
            </g>
            <g>
                <path d=" M 927.462 61.499 C 927.462 50.461 936.424 41.499 947.462 41.499 C 958.501 41.499 967.462 50.461 967.462 61.499 C 967.462 72.538 958.501 81.499 947.462 81.499 C 936.424 81.499 927.462 72.538 927.462 61.499 Z "
                      fill="rgb(255,0,119)"/>
                <path d=" M 940.845 140.065 C 939.974 143.337 933.237 152.244 929.171 154.087 C 927.134 154.969 927.202 154.969 930.936 155.037 C 933.041 155.037 937.047 154.426 939.831 153.747 C 956.709 149.413 967.679 136.566 967.455 121.597 C 967.461 121.463 967.462 121.327 967.462 121.192 C 967.462 110.153 958.501 101.192 947.462 101.192 C 936.424 101.192 927.462 110.153 927.462 121.192 C 927.462 129.911 933.054 137.334 940.845 140.065 Z "
                      fill="rgb(255,0,119)"/>
            </g>
        </g>
    </g>
</svg>