<?xml version="1.0" standalone="no"?><!-- Generator: Gravit.io --><svg xmlns="http://www.w3.org/2000/svg" xmlns:xlink="http://www.w3.org/1999/xlink" style="isolation:isolate" viewBox="0 0 1140.906 481.373" width="1140.906" height="481.373"><defs><clipPath id="_clipPath_MEkExOcnUcBYT80ZSQo1ITEr9PQZFDqf"><rect width="1140.906" height="481.373"/></clipPath></defs><g clip-path="url(#_clipPath_MEkExOcnUcBYT80ZSQo1ITEr9PQZFDqf)"><rect width="1140.906" height="481.373" style="fill:rgb(61,0,117)" fill-opacity="0"/><g><g><g><path d=" M 345.704 34.764 C 344.288 33.482 342.828 32.213 341.362 30.992 C 336.857 27.244 330.165 27.857 326.417 32.361 C 322.668 36.866 323.281 43.557 327.786 47.306 C 329.022 48.335 330.254 49.406 331.448 50.488 C 333.48 52.33 336.03 53.239 338.573 53.239 C 341.464 53.239 344.344 52.065 346.438 49.755 C 350.374 45.412 350.045 38.701 345.704 34.764 Z " fill="rgb(217,192,163)"/></g></g><g><g><path d=" M 227.364 90.253 L 220.874 83.764 C 216.731 79.619 210.01 79.62 205.866 83.765 C 201.722 87.909 201.723 94.629 205.867 98.773 L 212.357 105.262 C 214.43 107.335 217.144 108.37 219.861 108.37 C 222.578 108.37 225.293 107.333 227.365 105.261 C 231.509 101.116 231.508 94.397 227.364 90.253 Z " fill="rgb(217,192,163)"/></g></g><g><g><path d=" M 299.152 166.141 C 287.775 157.018 272.82 151.875 256.892 151.59 C 256.739 151.584 256.588 151.567 256.434 151.567 L 255.566 151.567 C 255.434 151.567 255.307 151.582 255.177 151.587 C 239.263 151.846 224.257 156.994 212.848 166.142 C 200.549 176.005 193.775 189.305 193.775 203.592 C 193.775 217.875 200.548 231.174 212.847 241.038 C 224.224 250.165 239.18 255.309 255.107 255.595 C 255.261 255.601 255.412 255.618 255.566 255.618 L 256.434 255.618 C 256.566 255.618 256.694 255.603 256.823 255.598 C 272.736 255.339 287.743 250.19 299.152 241.037 C 311.451 231.173 318.225 217.874 318.225 203.591 C 318.225 189.304 311.452 176.003 299.152 166.141 Z  M 256.034 234.392 C 233.403 234.233 214.997 220.421 214.997 203.592 C 214.997 186.763 233.403 172.952 255.965 172.793 C 278.596 172.952 297.002 186.764 297.002 203.592 C 297.002 220.421 278.597 234.233 256.034 234.392 Z " fill="rgb(217,192,163)"/></g></g><g><g><path d=" M 306.133 83.765 C 301.991 79.622 295.271 79.621 291.125 83.764 L 284.635 90.253 C 280.491 94.396 280.49 101.115 284.634 105.261 C 286.705 107.334 289.422 108.37 292.138 108.37 C 294.855 108.37 297.57 107.333 299.642 105.262 L 306.132 98.773 C 310.276 94.629 310.277 87.91 306.133 83.765 Z " fill="rgb(217,192,163)"/></g></g><g><g><path d=" M 261.589 192.98 L 250.411 192.98 C 244.551 192.98 239.799 197.732 239.799 203.592 C 239.799 209.452 244.55 214.204 250.411 214.204 L 261.589 214.204 C 267.449 214.204 272.201 209.452 272.201 203.592 C 272.201 197.732 267.449 192.98 261.589 192.98 Z " fill="rgb(217,192,163)"/></g></g><g><g><path d=" M 501.388 460.149 L 482.887 460.149 C 480.686 446.059 474.123 433.058 463.844 422.766 C 451.027 409.949 433.985 402.891 415.858 402.891 C 408.895 402.891 402.348 400.181 397.431 395.272 C 392.509 390.343 389.8 383.794 389.8 376.833 L 389.8 285.335 L 397.748 289.924 C 399.418 290.889 401.243 291.347 403.041 291.347 C 406.71 291.347 410.277 289.442 412.243 286.037 C 415.173 280.961 413.432 274.472 408.356 271.542 L 389.8 260.828 L 389.8 214.204 L 423.728 214.204 C 429.588 214.204 434.34 209.452 434.34 203.592 C 434.34 197.732 429.588 192.98 423.728 192.98 L 389.8 192.98 L 389.8 146.349 L 408.359 135.631 C 413.434 132.7 415.173 126.21 412.241 121.135 C 409.31 116.059 402.822 114.316 397.745 117.253 L 389.242 122.163 C 387.414 101.79 380.985 82.092 370.346 64.592 C 367.301 59.585 360.775 57.994 355.765 61.037 C 350.757 64.082 349.165 70.61 352.21 75.618 C 362.895 93.194 368.551 113.412 368.574 134.099 L 338.36 151.546 C 333.285 154.478 331.546 160.967 334.477 166.043 C 336.443 169.447 340.01 171.35 343.678 171.35 C 345.478 171.35 347.303 170.891 348.974 169.926 L 368.576 158.606 L 368.576 192.981 L 355.15 192.981 C 349.29 192.981 344.538 197.733 344.538 203.593 C 344.538 209.453 349.29 214.205 355.15 214.205 L 368.576 214.205 L 368.576 248.576 L 348.974 237.259 C 343.896 234.328 337.408 236.069 334.477 241.142 C 331.546 246.218 333.285 252.708 338.36 255.639 L 368.576 273.082 L 368.576 376.832 C 368.576 386.257 371.317 395.262 376.423 402.945 L 359.73 402.945 C 353.87 402.945 349.118 407.697 349.118 413.557 C 349.118 419.417 353.87 424.169 359.73 424.169 L 418.019 424.169 C 418.03 424.169 418.04 424.168 418.051 424.168 C 429.685 424.703 440.547 429.484 448.832 437.77 C 455.084 444.027 459.329 451.746 461.276 460.149 L 442.208 460.149 L 442.208 452.312 C 442.208 446.452 437.456 441.7 431.596 441.7 C 425.736 441.7 420.984 446.452 420.984 452.312 L 420.984 460.149 L 405.516 460.149 L 405.516 452.312 C 405.516 446.452 400.764 441.7 394.904 441.7 C 389.044 441.7 384.292 446.452 384.292 452.312 L 384.292 460.149 L 351.255 460.149 C 341.338 460.149 333.271 452.078 333.271 442.154 L 333.271 359.554 C 333.271 338.928 325.235 319.526 310.639 304.919 C 296.053 290.331 276.65 282.297 256.003 282.297 C 213.397 282.297 178.734 316.955 178.734 359.555 L 178.734 442.155 C 178.734 452.078 170.666 460.15 160.75 460.15 L 127.713 460.15 L 127.713 452.313 C 127.713 446.453 122.961 441.701 117.101 441.701 C 111.241 441.701 106.489 446.453 106.489 452.313 L 106.489 460.15 L 91.017 460.15 L 91.017 452.313 C 91.017 446.453 86.265 441.701 80.405 441.701 C 74.545 441.701 69.793 446.453 69.793 452.313 L 69.793 460.15 L 50.724 460.15 C 52.67 451.748 56.916 444.03 63.163 437.776 C 71.452 429.486 82.315 424.704 93.949 424.169 C 93.96 424.169 93.97 424.17 93.981 424.17 L 152.27 424.17 C 158.13 424.17 162.882 419.418 162.882 413.558 C 162.882 407.698 158.13 402.946 152.27 402.946 L 135.534 402.946 C 140.514 395.458 143.425 386.48 143.425 376.833 L 143.425 274.73 L 176.492 255.64 C 181.568 252.71 183.308 246.22 180.378 241.144 C 177.447 236.068 170.958 234.328 165.882 237.258 L 143.425 250.223 L 143.425 214.204 L 159.706 214.204 C 165.566 214.204 170.318 209.452 170.318 203.592 C 170.318 197.732 165.566 192.98 159.706 192.98 L 143.425 192.98 L 143.425 156.958 L 165.88 169.926 C 167.551 170.891 169.377 171.35 171.176 171.35 C 174.844 171.35 178.41 169.446 180.377 166.043 C 183.308 160.968 181.569 154.478 176.494 151.546 L 143.447 132.461 C 144.391 71.185 194.51 21.46 255.998 21.234 C 272.469 21.294 288.331 24.815 303.141 31.696 C 304.587 32.369 306.109 32.687 307.606 32.687 C 311.608 32.687 315.44 30.413 317.236 26.545 C 319.706 21.23 317.399 14.92 312.085 12.45 C 294.72 4.381 276.152 0.205 256.885 0.022 C 256.734 0.016 256.587 0 256.434 0 C 256.293 0 256.145 0.004 256 0.007 C 255.855 0.004 255.707 0 255.566 0 C 255.416 0 255.272 0.016 255.123 0.022 C 186.343 0.677 129.711 53.459 122.889 120.59 L 117.109 117.251 C 112.032 114.32 105.544 116.06 102.612 121.134 C 99.681 126.209 101.42 132.699 106.495 135.631 L 122.201 144.701 L 122.201 192.979 L 91.138 192.979 C 85.278 192.979 80.526 197.731 80.526 203.591 C 80.526 209.451 85.278 214.203 91.138 214.203 L 122.201 214.203 L 122.201 262.474 L 106.495 271.541 C 101.42 274.473 99.681 280.962 102.612 286.038 C 104.578 289.442 108.145 291.345 111.813 291.345 C 113.613 291.345 115.438 290.885 117.109 289.921 L 122.201 286.981 L 122.201 376.83 C 122.201 391.199 110.511 402.889 96.142 402.889 C 78.016 402.889 60.974 409.947 48.152 422.769 C 37.876 433.056 31.314 446.057 29.113 460.148 L 10.612 460.148 C 4.752 460.149 0 464.901 0 470.761 C 0 476.621 4.752 481.373 10.612 481.373 L 501.388 481.373 C 507.248 481.373 512 476.621 512 470.761 C 512 464.901 507.248 460.149 501.388 460.149 Z  M 195.566 460.149 C 198.363 454.755 199.954 448.638 199.954 442.154 L 199.954 359.554 C 199.954 328.657 225.095 303.52 255.999 303.52 C 270.976 303.52 285.049 309.346 295.624 319.922 C 306.213 330.519 312.044 344.594 312.044 359.554 L 312.044 442.154 C 312.044 448.638 313.635 454.755 316.432 460.149 L 195.566 460.149 Z " fill="rgb(217,192,163)"/></g></g></g><g><path d=" M 528.594 1.406 L 528.594 1.406 L 528.594 1.406 Q 537.656 1.406 541.563 16.094 L 541.563 16.094 L 541.563 16.094 Q 543.594 23.438 545.156 43.906 L 545.156 43.906 L 545.469 48.75 L 545.781 58.594 L 545.781 58.594 Q 546.406 70.313 547.813 77.344 L 547.813 77.344 L 547.813 77.344 Q 549.219 84.375 555.156 84.375 L 555.156 84.375 L 555.156 84.375 Q 561.094 84.375 589.453 50.469 L 589.453 50.469 L 589.453 50.469 Q 617.813 16.563 625.547 10 L 625.547 10 L 625.547 10 Q 633.281 3.438 644.063 3.438 L 644.063 3.438 L 644.063 3.438 Q 649.375 3.438 649.375 6.875 L 649.375 6.875 L 649.375 6.875 Q 649.375 11.719 621.953 48.438 L 621.953 48.438 L 621.953 48.438 Q 594.531 85.156 594.531 92.656 L 594.531 92.656 L 594.531 92.656 Q 594.531 100.156 618.359 138.516 L 618.359 138.516 L 618.359 138.516 Q 642.188 176.875 644.219 179.844 L 644.219 179.844 L 644.219 179.844 Q 646.25 182.813 654.063 192.891 L 654.063 192.891 L 654.063 192.891 Q 661.875 202.969 661.875 205.625 L 661.875 205.625 L 661.875 208.594 L 661.875 208.594 Q 661.875 212.188 652.813 212.188 L 652.813 212.188 L 652.813 212.188 Q 643.75 212.188 633.828 202.031 L 633.828 202.031 L 633.828 202.031 Q 623.906 191.875 609.375 168.672 L 609.375 168.672 L 609.375 168.672 Q 594.844 145.469 584.609 134.063 L 584.609 134.063 L 584.609 134.063 Q 574.375 122.656 564.531 122.656 L 564.531 122.656 L 564.531 122.656 Q 554.688 122.656 547.5 141.719 L 547.5 141.719 L 547.5 141.719 Q 544.219 150.156 542.813 169.766 L 542.813 169.766 L 542.813 169.766 Q 541.406 189.375 538.359 199.609 L 538.359 199.609 L 538.359 199.609 Q 535.313 209.844 527.5 209.844 L 527.5 209.844 L 527.5 209.844 Q 520.938 209.844 517.969 205.938 L 517.969 205.938 L 517.969 205.938 Q 515 202.031 515 188.438 L 515 188.438 L 515 183.125 L 515 183.125 Q 515 180.625 515.703 168.281 L 515.703 168.281 L 515.703 168.281 Q 516.406 155.938 516.406 122.5 L 516.406 122.5 L 515.781 83.75 L 515.313 67.5 L 515.313 51.719 L 515.781 26.406 L 515.781 26.406 Q 515.781 13.75 518.203 7.578 L 518.203 7.578 L 518.203 7.578 Q 520.625 1.406 528.594 1.406 Z " fill="rgb(162,187,255)"/><path d=" M 736.234 262.437 L 736.234 262.437 L 745.297 262.437 L 745.297 262.437 Q 778.422 262.437 796.859 279.937 L 796.859 279.937 L 796.859 279.937 Q 805.766 288.218 808.891 298.53 L 808.891 298.53 L 808.891 298.53 Q 812.016 308.843 812.016 323.218 L 812.016 323.218 L 812.016 323.218 Q 812.016 350.249 790.141 372.749 L 790.141 372.749 L 790.141 372.749 Q 777.172 386.03 777.172 391.499 L 777.172 391.499 L 777.172 391.499 Q 777.172 401.03 796.234 433.53 L 796.234 433.53 L 796.234 433.53 Q 804.672 447.905 812.328 458.765 L 812.328 458.765 L 812.328 458.765 Q 819.984 469.624 819.984 473.53 L 819.984 473.53 L 819.984 473.53 Q 819.984 478.687 813.109 478.687 L 813.109 478.687 L 810.141 478.687 L 810.141 478.687 Q 801.859 478.687 794.516 469.312 L 794.516 469.312 L 794.516 469.312 Q 791.234 465.093 774.594 437.983 L 774.594 437.983 L 774.594 437.983 Q 757.953 410.874 750.531 404.39 L 750.531 404.39 L 750.531 404.39 Q 743.109 397.905 727.797 397.905 L 727.797 397.905 L 727.797 397.905 Q 712.484 397.905 709.516 405.874 L 709.516 405.874 L 709.516 405.874 Q 707.641 411.03 705.844 434.155 L 705.844 434.155 L 705.844 434.155 Q 704.047 457.28 700.844 467.358 L 700.844 467.358 L 700.844 467.358 Q 697.641 477.437 689.359 477.437 L 689.359 477.437 L 689.359 477.437 Q 681.078 477.437 679.516 470.405 L 679.516 470.405 L 679.516 470.405 Q 678.422 465.562 678.422 418.062 L 678.422 418.062 L 678.891 359.624 L 678.891 359.624 Q 678.891 340.718 678.266 329.624 L 678.266 329.624 L 676.547 301.655 L 676.547 301.655 Q 676.547 274.155 686.625 268.296 L 686.625 268.296 L 686.625 268.296 Q 696.703 262.437 736.234 262.437 Z  M 704.828 351.812 L 704.828 360.874 L 704.828 360.874 Q 704.828 367.905 707.406 370.796 L 707.406 370.796 L 707.406 370.796 Q 709.984 373.687 721.391 373.687 L 721.391 373.687 L 722.641 373.687 L 722.641 373.687 Q 750.141 373.687 767.797 359.78 L 767.797 359.78 L 767.797 359.78 Q 774.203 354.78 778.656 345.249 L 778.656 345.249 L 778.656 345.249 Q 783.109 335.718 783.109 326.812 L 783.109 326.812 L 783.109 318.999 L 783.109 318.999 Q 783.109 303.374 773.031 294.155 L 773.031 294.155 L 773.031 294.155 Q 762.953 284.937 748.422 284.937 L 748.422 284.937 L 736.547 284.937 L 736.547 284.937 Q 712.797 284.937 708.578 292.749 L 708.578 292.749 L 708.578 292.749 Q 705.297 298.843 705.297 334.937 L 705.297 334.937 L 704.984 342.593 L 704.984 342.593 Q 704.984 344.155 704.984 345.718 L 704.984 345.718 L 704.828 351.812 Z " fill-rule="evenodd" fill="rgb(255,130,130)"/><path d=" M 932.438 195.625 L 932.438 195.625 Q 958.219 195.625 958.219 204.844 L 958.219 204.844 L 958.219 204.844 Q 958.219 214.063 947.438 216.719 L 947.438 216.719 L 947.438 216.719 Q 929.938 221.094 884.156 221.094 L 884.156 221.094 L 878.844 221.094 L 878.844 221.094 Q 844.469 221.094 836.734 213.984 L 836.734 213.984 L 836.734 213.984 Q 829 206.875 829 176.406 L 829 176.406 L 829 171.094 L 829.156 165.781 L 829.156 165.781 Q 829.156 133.438 831.656 105.938 L 831.656 105.938 L 831.656 105.938 Q 834.156 78.438 834.156 47.422 L 834.156 47.422 L 834.156 47.422 Q 834.156 16.406 841.344 11.719 L 841.344 11.719 L 841.344 11.719 Q 857.125 1.406 902.906 1.406 L 902.906 1.406 L 929.156 1.406 L 929.156 1.406 Q 942.594 1.406 948.609 3.672 L 948.609 3.672 L 948.609 3.672 Q 954.625 5.938 954.625 12.656 L 954.625 12.656 L 954.625 12.656 Q 954.625 17.969 943.844 20.938 L 943.844 20.938 L 943.844 20.938 Q 933.063 23.906 906.031 26.094 L 906.031 26.094 L 906.031 26.094 Q 879 28.281 875.016 31.016 L 875.016 31.016 L 875.016 31.016 Q 871.031 33.75 867.438 44.063 L 867.438 44.063 L 867.438 44.063 Q 863.844 54.375 863.844 70.234 L 863.844 70.234 L 863.844 70.234 Q 863.844 86.094 871.188 89.219 L 871.188 89.219 L 871.188 89.219 Q 878.531 92.344 905.719 94.063 L 905.719 94.063 L 905.719 94.063 Q 932.906 95.781 934.313 96.25 L 934.313 96.25 L 934.313 96.25 Q 939.469 98.125 939.469 106.094 L 939.469 106.094 L 939.469 106.094 Q 939.469 114.063 929.156 117.031 L 929.156 117.031 L 929.156 117.031 Q 925.094 118.125 899.781 120.156 L 899.781 120.156 L 899.781 120.156 Q 874.469 122.188 867.203 126.094 L 867.203 126.094 L 867.203 126.094 Q 859.938 130 859.938 149.844 L 859.938 149.844 L 859.938 149.844 Q 859.938 181.719 867.438 190.625 L 867.438 190.625 L 867.438 190.625 Q 872.438 196.563 897.75 196.563 L 897.75 196.563 L 897.75 196.563 Q 903.219 196.563 913.063 196.25 L 913.063 196.25 L 932.438 195.625 Z " fill="rgb(217,230,149)"/><path d=" M 1060.906 478.687 L 1060.906 478.687 L 1057.469 478.687 L 1057.469 478.687 Q 1049.813 478.687 1047.859 474.312 L 1047.859 474.312 L 1047.859 474.312 Q 1045.906 469.937 1045.906 450.405 L 1045.906 450.405 L 1046.219 446.655 L 1046.688 439.312 L 1046.688 439.312 Q 1047 433.53 1047.391 427.671 L 1047.391 427.671 L 1047.391 427.671 Q 1047.781 421.812 1047.781 412.437 L 1047.781 412.437 L 1048.094 400.562 L 1048.094 400.562 Q 1048.094 396.655 1048.094 392.749 L 1048.094 392.749 L 1048.563 368.999 L 1048.563 368.999 Q 1048.563 307.437 1043.719 297.124 L 1043.719 297.124 L 1043.719 297.124 Q 1040.75 290.718 1035.047 289.077 L 1035.047 289.077 L 1035.047 289.077 Q 1029.344 287.437 1012.703 287.437 L 1012.703 287.437 L 1012.703 287.437 Q 996.063 287.437 991.141 285.249 L 991.141 285.249 L 991.141 285.249 Q 986.219 283.062 986.219 275.405 L 986.219 275.405 L 986.219 275.405 Q 986.219 266.812 999.344 264.468 L 999.344 264.468 L 999.344 264.468 Q 1028.094 259.312 1085.125 259.312 L 1085.125 259.312 L 1119.5 259.312 L 1119.5 259.312 Q 1131.375 259.312 1136.141 261.499 L 1136.141 261.499 L 1136.141 261.499 Q 1140.906 263.687 1140.906 270.171 L 1140.906 270.171 L 1140.906 270.171 Q 1140.906 276.655 1135.125 279.468 L 1135.125 279.468 L 1135.125 279.468 Q 1132 281.03 1111.297 283.843 L 1111.297 283.843 L 1111.297 283.843 Q 1090.594 286.655 1085.281 294.624 L 1085.281 294.624 L 1085.281 294.624 Q 1076.844 307.28 1076.844 359.155 L 1076.844 359.155 L 1076.219 390.562 L 1074.031 447.28 L 1074.031 447.28 Q 1074.031 467.124 1071.063 472.905 L 1071.063 472.905 L 1071.063 472.905 Q 1068.094 478.687 1060.906 478.687 Z " fill="rgb(115,255,236)"/></g></g></svg>