<?xml version="1.0" standalone="no"?><!-- Generator: Gravit.io --><svg xmlns="http://www.w3.org/2000/svg" xmlns:xlink="http://www.w3.org/1999/xlink" style="isolation:isolate" viewBox="0 0 693.281 219.688" width="693.281" height="219.688"><defs><clipPath id="_clipPath_JiHyu1f8qy7mXTTxpGRRMh6BhITyb74s"><rect width="693.281" height="219.688"/></clipPath></defs><g clip-path="url(#_clipPath_JiHyu1f8qy7mXTTxpGRRMh6BhITyb74s)"><rect width="693.281" height="219.688" style="fill:rgb(61,0,117)" fill-opacity="0"/><g><path d=" M 13.594 8.906 L 13.594 8.906 L 13.594 8.906 Q 22.656 8.906 26.563 23.594 L 26.563 23.594 L 26.563 23.594 Q 28.594 30.938 30.156 51.406 L 30.156 51.406 L 30.469 56.25 L 30.781 66.094 L 30.781 66.094 Q 31.406 77.813 32.813 84.844 L 32.813 84.844 L 32.813 84.844 Q 34.219 91.875 40.156 91.875 L 40.156 91.875 L 40.156 91.875 Q 46.094 91.875 74.453 57.969 L 74.453 57.969 L 74.453 57.969 Q 102.813 24.063 110.547 17.5 L 110.547 17.5 L 110.547 17.5 Q 118.281 10.938 129.063 10.938 L 129.063 10.938 L 129.063 10.938 Q 134.375 10.938 134.375 14.375 L 134.375 14.375 L 134.375 14.375 Q 134.375 19.219 106.953 55.938 L 106.953 55.938 L 106.953 55.938 Q 79.531 92.656 79.531 100.156 L 79.531 100.156 L 79.531 100.156 Q 79.531 107.656 103.359 146.016 L 103.359 146.016 L 103.359 146.016 Q 127.188 184.375 129.219 187.344 L 129.219 187.344 L 129.219 187.344 Q 131.25 190.313 139.063 200.391 L 139.063 200.391 L 139.063 200.391 Q 146.875 210.469 146.875 213.125 L 146.875 213.125 L 146.875 216.094 L 146.875 216.094 Q 146.875 219.688 137.813 219.688 L 137.813 219.688 L 137.813 219.688 Q 128.75 219.688 118.828 209.531 L 118.828 209.531 L 118.828 209.531 Q 108.906 199.375 94.375 176.172 L 94.375 176.172 L 94.375 176.172 Q 79.844 152.969 69.609 141.563 L 69.609 141.563 L 69.609 141.563 Q 59.375 130.156 49.531 130.156 L 49.531 130.156 L 49.531 130.156 Q 39.688 130.156 32.5 149.219 L 32.5 149.219 L 32.5 149.219 Q 29.219 157.656 27.813 177.266 L 27.813 177.266 L 27.813 177.266 Q 26.406 196.875 23.359 207.109 L 23.359 207.109 L 23.359 207.109 Q 20.313 217.344 12.5 217.344 L 12.5 217.344 L 12.5 217.344 Q 5.938 217.344 2.969 213.438 L 2.969 213.438 L 2.969 213.438 Q 0 209.531 0 195.938 L 0 195.938 L 0 190.625 L 0 190.625 Q 0 188.125 0.703 175.781 L 0.703 175.781 L 0.703 175.781 Q 1.406 163.438 1.406 130 L 1.406 130 L 0.781 91.25 L 0.313 75 L 0.313 59.219 L 0.781 33.906 L 0.781 33.906 Q 0.781 21.25 3.203 15.078 L 3.203 15.078 L 3.203 15.078 Q 5.625 8.906 13.594 8.906 Z " fill="rgb(162,187,255)"/><path d=" M 246.25 3.438 L 246.25 3.438 L 255.313 3.438 L 255.313 3.438 Q 288.438 3.438 306.875 20.938 L 306.875 20.938 L 306.875 20.938 Q 315.781 29.219 318.906 39.531 L 318.906 39.531 L 318.906 39.531 Q 322.031 49.844 322.031 64.219 L 322.031 64.219 L 322.031 64.219 Q 322.031 91.25 300.156 113.75 L 300.156 113.75 L 300.156 113.75 Q 287.188 127.031 287.188 132.5 L 287.188 132.5 L 287.188 132.5 Q 287.188 142.031 306.25 174.531 L 306.25 174.531 L 306.25 174.531 Q 314.688 188.906 322.344 199.766 L 322.344 199.766 L 322.344 199.766 Q 330 210.625 330 214.531 L 330 214.531 L 330 214.531 Q 330 219.688 323.125 219.688 L 323.125 219.688 L 320.156 219.688 L 320.156 219.688 Q 311.875 219.688 304.531 210.313 L 304.531 210.313 L 304.531 210.313 Q 301.25 206.094 284.609 178.984 L 284.609 178.984 L 284.609 178.984 Q 267.969 151.875 260.547 145.391 L 260.547 145.391 L 260.547 145.391 Q 253.125 138.906 237.813 138.906 L 237.813 138.906 L 237.813 138.906 Q 222.5 138.906 219.531 146.875 L 219.531 146.875 L 219.531 146.875 Q 217.656 152.031 215.859 175.156 L 215.859 175.156 L 215.859 175.156 Q 214.063 198.281 210.859 208.359 L 210.859 208.359 L 210.859 208.359 Q 207.656 218.438 199.375 218.438 L 199.375 218.438 L 199.375 218.438 Q 191.094 218.438 189.531 211.406 L 189.531 211.406 L 189.531 211.406 Q 188.438 206.563 188.438 159.063 L 188.438 159.063 L 188.906 100.625 L 188.906 100.625 Q 188.906 81.719 188.281 70.625 L 188.281 70.625 L 186.563 42.656 L 186.563 42.656 Q 186.563 15.156 196.641 9.297 L 196.641 9.297 L 196.641 9.297 Q 206.719 3.438 246.25 3.438 Z  M 214.844 92.813 L 214.844 101.875 L 214.844 101.875 Q 214.844 108.906 217.422 111.797 L 217.422 111.797 L 217.422 111.797 Q 220 114.688 231.406 114.688 L 231.406 114.688 L 232.656 114.688 L 232.656 114.688 Q 260.156 114.688 277.813 100.781 L 277.813 100.781 L 277.813 100.781 Q 284.219 95.781 288.672 86.25 L 288.672 86.25 L 288.672 86.25 Q 293.125 76.719 293.125 67.813 L 293.125 67.813 L 293.125 60 L 293.125 60 Q 293.125 44.375 283.047 35.156 L 283.047 35.156 L 283.047 35.156 Q 272.969 25.938 258.438 25.938 L 258.438 25.938 L 246.563 25.938 L 246.563 25.938 Q 222.813 25.938 218.594 33.75 L 218.594 33.75 L 218.594 33.75 Q 215.313 39.844 215.313 75.938 L 215.313 75.938 L 215 83.594 L 215 83.594 Q 215 85.156 215 86.719 L 215 86.719 L 214.844 92.813 Z " fill-rule="evenodd" fill="rgb(255,130,130)"/><path d=" M 473.125 194.219 L 473.125 194.219 Q 498.906 194.219 498.906 203.438 L 498.906 203.438 L 498.906 203.438 Q 498.906 212.656 488.125 215.313 L 488.125 215.313 L 488.125 215.313 Q 470.625 219.688 424.844 219.688 L 424.844 219.688 L 419.531 219.688 L 419.531 219.688 Q 385.156 219.688 377.422 212.578 L 377.422 212.578 L 377.422 212.578 Q 369.688 205.469 369.688 175 L 369.688 175 L 369.688 169.688 L 369.844 164.375 L 369.844 164.375 Q 369.844 132.031 372.344 104.531 L 372.344 104.531 L 372.344 104.531 Q 374.844 77.031 374.844 46.016 L 374.844 46.016 L 374.844 46.016 Q 374.844 15 382.031 10.313 L 382.031 10.313 L 382.031 10.313 Q 397.813 0 443.594 0 L 443.594 0 L 469.844 0 L 469.844 0 Q 483.281 0 489.297 2.266 L 489.297 2.266 L 489.297 2.266 Q 495.313 4.531 495.313 11.25 L 495.313 11.25 L 495.313 11.25 Q 495.313 16.563 484.531 19.531 L 484.531 19.531 L 484.531 19.531 Q 473.75 22.5 446.719 24.688 L 446.719 24.688 L 446.719 24.688 Q 419.688 26.875 415.703 29.609 L 415.703 29.609 L 415.703 29.609 Q 411.719 32.344 408.125 42.656 L 408.125 42.656 L 408.125 42.656 Q 404.531 52.969 404.531 68.828 L 404.531 68.828 L 404.531 68.828 Q 404.531 84.688 411.875 87.813 L 411.875 87.813 L 411.875 87.813 Q 419.219 90.938 446.406 92.656 L 446.406 92.656 L 446.406 92.656 Q 473.594 94.375 475 94.844 L 475 94.844 L 475 94.844 Q 480.156 96.719 480.156 104.688 L 480.156 104.688 L 480.156 104.688 Q 480.156 112.656 469.844 115.625 L 469.844 115.625 L 469.844 115.625 Q 465.781 116.719 440.469 118.75 L 440.469 118.75 L 440.469 118.75 Q 415.156 120.781 407.891 124.688 L 407.891 124.688 L 407.891 124.688 Q 400.625 128.594 400.625 148.438 L 400.625 148.438 L 400.625 148.438 Q 400.625 180.313 408.125 189.219 L 408.125 189.219 L 408.125 189.219 Q 413.125 195.156 438.438 195.156 L 438.438 195.156 L 438.438 195.156 Q 443.906 195.156 453.75 194.844 L 453.75 194.844 L 473.125 194.219 Z " fill="rgb(217,230,149)"/><path d=" M 613.281 219.688 L 613.281 219.688 L 609.844 219.688 L 609.844 219.688 Q 602.188 219.688 600.234 215.313 L 600.234 215.313 L 600.234 215.313 Q 598.281 210.938 598.281 191.406 L 598.281 191.406 L 598.594 187.656 L 599.063 180.313 L 599.063 180.313 Q 599.375 174.531 599.766 168.672 L 599.766 168.672 L 599.766 168.672 Q 600.156 162.813 600.156 153.438 L 600.156 153.438 L 600.469 141.563 L 600.469 141.563 Q 600.469 137.656 600.469 133.75 L 600.469 133.75 L 600.938 110 L 600.938 110 Q 600.938 48.438 596.094 38.125 L 596.094 38.125 L 596.094 38.125 Q 593.125 31.719 587.422 30.078 L 587.422 30.078 L 587.422 30.078 Q 581.719 28.438 565.078 28.438 L 565.078 28.438 L 565.078 28.438 Q 548.438 28.438 543.516 26.25 L 543.516 26.25 L 543.516 26.25 Q 538.594 24.063 538.594 16.406 L 538.594 16.406 L 538.594 16.406 Q 538.594 7.813 551.719 5.469 L 551.719 5.469 L 551.719 5.469 Q 580.469 0.313 637.5 0.313 L 637.5 0.313 L 671.875 0.313 L 671.875 0.313 Q 683.75 0.313 688.516 2.5 L 688.516 2.5 L 688.516 2.5 Q 693.281 4.688 693.281 11.172 L 693.281 11.172 L 693.281 11.172 Q 693.281 17.656 687.5 20.469 L 687.5 20.469 L 687.5 20.469 Q 684.375 22.031 663.672 24.844 L 663.672 24.844 L 663.672 24.844 Q 642.969 27.656 637.656 35.625 L 637.656 35.625 L 637.656 35.625 Q 629.219 48.281 629.219 100.156 L 629.219 100.156 L 628.594 131.563 L 626.406 188.281 L 626.406 188.281 Q 626.406 208.125 623.438 213.906 L 623.438 213.906 L 623.438 213.906 Q 620.469 219.688 613.281 219.688 Z " fill="rgb(115,255,236)"/></g></g></svg>