<?xml version="1.0" standalone="no"?><!-- Generator: Gravit.io --><svg xmlns="http://www.w3.org/2000/svg" xmlns:xlink="http://www.w3.org/1999/xlink" style="isolation:isolate" viewBox="0 0 673 180.617" width="673" height="180.617"><defs><clipPath id="_clipPath_zla9MmiOs3r9Vk8H5pKNuqrkQMcN7vAR"><rect width="673" height="180.617"/></clipPath></defs><g clip-path="url(#_clipPath_zla9MmiOs3r9Vk8H5pKNuqrkQMcN7vAR)"><rect width="673" height="180.617" style="fill:rgb(0,0,0)" fill-opacity="0"/><g><g><path d=" M 383.2 168.017 L 383.2 168.017 Q 385 170.017 385 172.617 L 385 172.617 L 385 172.617 Q 385 175.217 382.9 176.917 L 382.9 176.917 L 382.9 176.917 Q 380.8 178.617 379 178.617 L 379 178.617 L 379 178.617 Q 376.4 178.617 374.6 176.417 L 374.6 176.417 L 330.4 129.617 L 315.4 142.417 L 315.4 172.617 L 315.4 172.617 Q 315.4 175.217 313.7 176.917 L 313.7 176.917 L 313.7 176.917 Q 312 178.617 309.4 178.617 L 309.4 178.617 L 309.4 178.617 Q 306.8 178.617 305.1 176.917 L 305.1 176.917 L 305.1 176.917 Q 303.4 175.217 303.4 172.617 L 303.4 172.617 L 303.4 36.617 L 303.4 36.617 Q 303.4 34.017 305.1 32.317 L 305.1 32.317 L 305.1 32.317 Q 306.8 30.617 309.4 30.617 L 309.4 30.617 L 309.4 30.617 Q 312 30.617 313.7 32.317 L 313.7 32.317 L 313.7 32.317 Q 315.4 34.017 315.4 36.617 L 315.4 36.617 L 315.4 127.817 L 373.2 78.017 L 373.2 78.017 Q 375 76.017 377.4 76.017 L 377.4 76.017 L 377.4 76.017 Q 379.6 76.017 381.4 77.917 L 381.4 77.917 L 381.4 77.917 Q 383.2 79.817 383.2 82.017 L 383.2 82.017 L 383.2 82.017 Q 383.2 84.417 381 86.617 L 381 86.617 L 339.8 121.617 L 383.2 168.017 Z " fill="rgb(255,255,255)"/><path d=" M 467 74.017 L 467 74.017 Q 471 74.017 474.2 75.617 L 474.2 75.617 L 474.2 75.617 Q 477.4 77.217 477.4 80.417 L 477.4 80.417 L 477.4 80.417 Q 477.4 83.217 475.8 84.917 L 475.8 84.917 L 475.8 84.917 Q 474.2 86.617 472 86.617 L 472 86.617 L 472 86.617 Q 471 86.617 468.1 85.617 L 468.1 85.617 L 468.1 85.617 Q 465.2 84.617 462.6 84.617 L 462.6 84.617 L 462.6 84.617 Q 455.2 84.617 447.9 90.317 L 447.9 90.317 L 447.9 90.317 Q 440.6 96.017 435.9 105.017 L 435.9 105.017 L 435.9 105.017 Q 431.2 114.017 431.2 123.217 L 431.2 123.217 L 431.2 172.617 L 431.2 172.617 Q 431.2 175.217 429.5 176.917 L 429.5 176.917 L 429.5 176.917 Q 427.8 178.617 425.2 178.617 L 425.2 178.617 L 425.2 178.617 Q 422.6 178.617 420.9 176.917 L 420.9 176.917 L 420.9 176.917 Q 419.2 175.217 419.2 172.617 L 419.2 172.617 L 419.2 83.017 L 419.2 83.017 Q 419.2 80.417 420.9 78.717 L 420.9 78.717 L 420.9 78.717 Q 422.6 77.017 425.2 77.017 L 425.2 77.017 L 425.2 77.017 Q 427.8 77.017 429.5 78.717 L 429.5 78.717 L 429.5 78.717 Q 431.2 80.417 431.2 83.017 L 431.2 83.017 L 431.2 100.617 L 431.2 100.617 Q 435.8 89.217 445.1 81.717 L 445.1 81.717 L 445.1 81.717 Q 454.4 74.217 467 74.017 L 467 74.017 Z " fill="rgb(255,255,255)"/><path d=" M 592.6 121.617 L 592.6 121.617 Q 592.6 124.017 590.8 125.717 L 590.8 125.717 L 590.8 125.717 Q 589 127.417 586.6 127.417 L 586.6 127.417 L 511 127.417 L 511 127.417 Q 511 139.417 515.9 148.917 L 515.9 148.917 L 515.9 148.917 Q 520.8 158.417 529.9 163.917 L 529.9 163.917 L 529.9 163.917 Q 539 169.417 551.4 169.417 L 551.4 169.417 L 551.4 169.417 Q 561 169.417 568.6 165.417 L 568.6 165.417 L 568.6 165.417 Q 576.2 161.417 580.8 155.217 L 580.8 155.217 L 580.8 155.217 Q 583 153.417 585 153.417 L 585 153.417 L 585 153.417 Q 587 153.417 588.6 155.017 L 588.6 155.017 L 588.6 155.017 Q 590.2 156.617 590.2 158.617 L 590.2 158.617 L 590.2 158.617 Q 590.2 160.817 588.2 162.817 L 588.2 162.817 L 588.2 162.817 Q 581.8 170.617 572.1 175.617 L 572.1 175.617 L 572.1 175.617 Q 562.4 180.617 551.6 180.617 L 551.6 180.617 L 551.6 180.617 Q 536.2 180.617 524.4 174.017 L 524.4 174.017 L 524.4 174.017 Q 512.6 167.417 506 155.517 L 506 155.517 L 506 155.517 Q 499.4 143.617 499.4 128.017 L 499.4 128.017 L 499.4 128.017 Q 499.4 111.617 505.9 99.317 L 505.9 99.317 L 505.9 99.317 Q 512.4 87.017 523.2 80.517 L 523.2 80.517 L 523.2 80.517 Q 534 74.017 546.2 74.017 L 546.2 74.017 L 546.2 74.017 Q 558.2 74.017 568.7 79.617 L 568.7 79.617 L 568.7 79.617 Q 579.2 85.217 585.8 96.017 L 585.8 96.017 L 585.8 96.017 Q 592.4 106.817 592.6 121.617 L 592.6 121.617 Z  M 546.2 85.617 L 546.2 85.617 Q 534.6 85.617 524.7 93.617 L 524.7 93.617 L 524.7 93.617 Q 514.8 101.617 512 116.617 L 512 116.617 L 580.2 116.617 L 580.2 115.017 L 580.2 115.017 Q 579.2 106.017 574.2 99.317 L 574.2 99.317 L 574.2 99.317 Q 569.2 92.617 561.7 89.117 L 561.7 89.117 L 561.7 89.117 Q 554.2 85.617 546.2 85.617 L 546.2 85.617 Z " fill-rule="evenodd" fill="rgb(255,255,255)"/><path d=" M 667.4 88.017 L 647.4 88.017 L 647.4 155.017 L 647.4 155.017 Q 647.4 162.617 650.2 165.317 L 650.2 165.317 L 650.2 165.317 Q 653 168.017 657.6 168.017 L 657.6 168.017 L 657.6 168.017 Q 658.8 168.017 660.6 167.517 L 660.6 167.517 L 660.6 167.517 Q 662.4 167.017 663.4 167.017 L 663.4 167.017 L 663.4 167.017 Q 665.2 167.017 666.5 168.517 L 666.5 168.517 L 666.5 168.517 Q 667.8 170.017 667.8 172.017 L 667.8 172.017 L 667.8 172.017 Q 667.8 174.817 664.6 176.717 L 664.6 176.717 L 664.6 176.717 Q 661.4 178.617 657 178.617 L 657 178.617 L 657 178.617 Q 651.6 178.617 647.4 177.617 L 647.4 177.617 L 647.4 177.617 Q 643.2 176.617 639.3 171.617 L 639.3 171.617 L 639.3 171.617 Q 635.4 166.617 635.4 155.617 L 635.4 155.617 L 635.4 88.017 L 620.8 88.017 L 620.8 88.017 Q 618.4 88.017 616.7 86.417 L 616.7 86.417 L 616.7 86.417 Q 615 84.817 615 82.417 L 615 82.417 L 615 82.417 Q 615 80.017 616.7 78.417 L 616.7 78.417 L 616.7 78.417 Q 618.4 76.817 620.8 76.817 L 620.8 76.817 L 635.4 76.817 L 635.4 54.617 L 635.4 54.617 Q 635.4 52.017 637.1 50.317 L 637.1 50.317 L 637.1 50.317 Q 638.8 48.617 641.4 48.617 L 641.4 48.617 L 641.4 48.617 Q 644 48.617 645.7 50.317 L 645.7 50.317 L 645.7 50.317 Q 647.4 52.017 647.4 54.617 L 647.4 54.617 L 647.4 76.817 L 667.4 76.817 L 667.4 76.817 Q 669.6 76.817 671.3 78.617 L 671.3 78.617 L 671.3 78.617 Q 673 80.417 673 82.617 L 673 82.617 L 673 82.617 Q 673 85.017 671.4 86.517 L 671.4 86.517 L 671.4 86.517 Q 669.8 88.017 667.4 88.017 L 667.4 88.017 Z " fill="rgb(255,255,255)"/></g></g><g><g><g><g><path d=" M 154.671 16.425 C 153.989 15.808 153.286 15.197 152.58 14.609 C 150.411 12.804 147.188 13.099 145.383 15.268 C 143.577 17.438 143.872 20.66 146.042 22.466 C 146.637 22.961 147.23 23.477 147.806 23.998 C 148.784 24.885 150.012 25.323 151.237 25.323 C 152.629 25.323 154.016 24.758 155.025 23.645 C 156.921 21.554 156.762 18.322 154.671 16.425 Z " fill="rgb(255,255,255)"/></g></g><g><g><path d=" M 97.677 43.15 L 94.551 40.025 C 92.556 38.028 89.319 38.029 87.323 40.025 C 85.327 42.021 85.328 45.257 87.324 47.253 L 90.449 50.378 C 91.448 51.377 92.755 51.875 94.063 51.875 C 95.372 51.875 96.68 51.376 97.678 50.378 C 99.673 48.382 99.673 45.146 97.677 43.15 Z " fill="rgb(255,255,255)"/></g></g><g><g><path d=" M 132.251 79.699 C 126.772 75.305 119.569 72.828 111.898 72.691 C 111.825 72.688 111.752 72.68 111.678 72.68 L 111.26 72.68 C 111.196 72.68 111.135 72.687 111.072 72.689 C 103.408 72.814 96.181 75.293 90.686 79.699 C 84.763 84.449 81.5 90.855 81.5 97.736 C 81.5 104.614 84.762 111.019 90.685 115.77 C 96.165 120.166 103.368 122.643 111.039 122.781 C 111.113 122.784 111.185 122.792 111.26 122.792 L 111.678 122.792 C 111.741 122.792 111.803 122.785 111.865 122.782 C 119.529 122.658 126.757 120.178 132.251 115.77 C 138.175 111.019 141.437 104.614 141.437 97.735 C 141.437 90.854 138.175 84.448 132.251 79.699 Z  M 111.485 112.569 C 100.586 112.493 91.721 105.841 91.721 97.736 C 91.721 89.63 100.586 82.979 111.452 82.902 C 122.351 82.979 131.216 89.631 131.216 97.736 C 131.216 105.841 122.352 112.493 111.485 112.569 Z " fill="rgb(255,255,255)"/></g></g><g><g><path d=" M 135.613 40.025 C 133.619 38.03 130.382 38.029 128.385 40.025 L 125.26 43.15 C 123.264 45.145 123.263 48.381 125.259 50.378 C 126.257 51.376 127.565 51.875 128.873 51.875 C 130.182 51.875 131.489 51.376 132.487 50.378 L 135.613 47.253 C 137.609 45.257 137.609 42.021 135.613 40.025 Z " fill="rgb(255,255,255)"/></g></g><g><g><path d=" M 114.16 92.625 L 108.777 92.625 C 105.955 92.625 103.666 94.913 103.666 97.736 C 103.666 100.558 105.954 102.846 108.777 102.846 L 114.16 102.846 C 116.983 102.846 119.271 100.558 119.271 97.736 C 119.271 94.913 116.983 92.625 114.16 92.625 Z " fill="rgb(255,255,255)"/></g></g><g><g><path d=" M 165.528 151.792 L 57.092 151.792 L 57.092 132.314 L 73.018 123.12 C 75.462 121.709 76.3 118.583 74.889 116.139 C 73.478 113.694 70.352 112.856 67.908 114.267 L 57.092 120.511 L 57.092 103.164 L 64.933 103.164 C 67.755 103.164 70.044 100.875 70.044 98.053 C 70.044 95.231 67.755 92.942 64.933 92.942 L 57.092 92.942 L 57.092 75.593 L 67.907 81.839 C 68.711 82.304 69.591 82.525 70.457 82.525 C 72.224 82.525 73.941 81.608 74.889 79.969 C 76.3 77.525 75.463 74.399 73.019 72.987 L 57.103 63.795 C 57.557 34.284 81.695 10.335 111.309 10.227 C 119.242 10.256 126.881 11.951 134.014 15.265 C 134.71 15.589 135.443 15.743 136.164 15.743 C 138.092 15.743 139.937 14.647 140.802 12.784 C 141.992 10.225 140.881 7.186 138.321 5.996 C 129.958 2.11 121.015 0.099 111.736 0.011 C 111.663 0.008 111.593 0 111.519 0 C 111.451 0 111.38 0.002 111.31 0.003 C 111.24 0.002 111.169 0 111.101 0 C 111.029 0 110.959 0.008 110.887 0.011 C 77.762 0.326 50.487 25.747 47.202 58.078 L 44.418 56.47 C 41.973 55.058 38.848 55.896 37.436 58.34 C 36.024 60.784 36.862 63.91 39.306 65.322 L 46.87 69.69 L 46.87 92.942 L 31.91 92.942 C 29.088 92.942 26.799 95.23 26.799 98.053 C 26.799 100.875 29.088 103.163 31.91 103.163 L 46.87 103.163 L 46.87 126.411 L 39.306 130.778 C 36.862 132.19 36.024 135.316 37.436 137.76 C 38.383 139.4 40.101 140.316 41.867 140.316 C 42.734 140.316 43.613 140.095 44.418 139.63 L 46.87 138.214 L 46.87 151.792 L 57.092 151.792 L 165.528 151.792 L 175.75 151.792 L 175.75 137.422 L 179.578 139.632 C 180.382 140.097 181.261 140.317 182.127 140.317 C 183.894 140.317 185.612 139.4 186.559 137.76 C 187.97 135.315 187.132 132.19 184.687 130.779 L 175.75 125.619 L 175.75 103.164 L 192.09 103.164 C 194.913 103.164 197.201 100.875 197.201 98.053 C 197.201 95.231 194.913 92.942 192.09 92.942 L 175.75 92.942 L 175.75 70.484 L 184.688 65.322 C 187.132 63.91 187.97 60.785 186.558 58.34 C 185.146 55.896 182.022 55.056 179.576 56.471 L 175.481 58.836 C 174.601 49.024 171.505 39.537 166.381 31.108 C 164.914 28.697 161.771 27.931 159.358 29.396 C 156.946 30.863 156.18 34.007 157.646 36.419 C 162.792 44.884 165.516 54.621 165.527 64.584 L 150.976 72.987 C 148.532 74.399 147.694 77.524 149.106 79.969 C 150.052 81.608 151.77 82.525 153.537 82.525 C 154.404 82.525 155.283 82.304 156.088 81.839 L 165.528 76.387 L 165.528 92.943 L 159.062 92.943 C 156.24 92.943 153.951 95.231 153.951 98.054 C 153.951 100.876 156.24 103.164 159.062 103.164 L 165.528 103.164 L 165.528 119.718 L 156.088 114.268 C 153.642 112.856 150.517 113.694 149.106 116.138 C 147.694 118.582 148.532 121.708 150.976 123.12 L 165.528 131.52 L 165.528 151.792 L 165.528 151.792 Z " fill="rgb(255,255,255)"/></g></g></g><path d=" M 57.97 174.617 L 57.97 180.617 L 45.97 180.617 L 45.97 174.617 L 45.97 145.787 L 45.97 139.787 L 57.97 139.787 L 57.97 145.787 L 57.97 174.617 Z " fill="rgb(255,255,255)"/><path d=" M 176.76 174.407 L 176.76 180.407 L 164.76 180.407 L 164.76 174.407 L 164.76 145.577 L 164.76 139.577 L 176.76 139.577 L 176.76 145.577 L 176.76 174.407 Z " fill="rgb(255,255,255)"/><path d=" M 218 168.617 C 219.59 168.617 221.12 169.247 222.24 170.377 C 223.37 171.497 224 173.027 224 174.617 C 224 176.208 223.37 177.737 222.24 178.857 C 221.12 179.987 219.59 180.617 218 180.617 L 6 180.617 C 4.41 180.617 2.88 179.987 1.76 178.857 C 0.63 177.737 0 176.208 0 174.617 C 0 173.027 0.63 171.497 1.76 170.377 C 2.88 169.247 4.41 168.617 6 168.617 L 218 168.617 Z " fill="rgb(255,255,255)"/></g></g></svg>